<?xml version="1.0" standalone="no"?><!DOCTYPE svg PUBLIC "-//W3C//DTD SVG 1.1//EN" "http://www.w3.org/Graphics/SVG/1.1/DTD/svg11.dtd"><svg t="1544065784688" class="icon" style="" viewBox="0 0 1024 1024" version="1.1" xmlns="http://www.w3.org/2000/svg" p-id="2715" xmlns:xlink="http://www.w3.org/1999/xlink" width="200" height="200"><defs><style type="text/css"></style></defs><path d="M512 1024A512 512 0 1 1 1024 512 512.602353 512.602353 0 0 1 512 1024z m0-963.764706A451.764706 451.764706 0 1 0 963.764706 512 451.764706 451.764706 0 0 0 512 60.235294z" p-id="2716"></path><path d="M706.56 736.677647a31.322353 31.322353 0 0 1-21.082353-8.432941L295.755294 338.522353a30.117647 30.117647 0 0 1 42.767059-42.767059l389.722353 389.722353a30.72 30.72 0 0 1 0 42.767059 32.527059 32.527059 0 0 1-21.684706 8.432941z" p-id="2717"></path><path d="M317.44 736.677647a32.527059 32.527059 0 0 1-21.684706-8.432941 30.72 30.72 0 0 1 0-42.767059l389.722353-389.722353a30.117647 30.117647 0 0 1 42.767059 42.767059l-389.722353 389.722353a31.322353 31.322353 0 0 1-21.082353 8.432941z" p-id="2718"></path></svg>