<?xml version="1.0" standalone="no"?><!DOCTYPE svg PUBLIC "-//W3C//DTD SVG 1.1//EN" "http://www.w3.org/Graphics/SVG/1.1/DTD/svg11.dtd"><svg t="1544065780351" class="icon" style="" viewBox="0 0 1024 1024" version="1.1" xmlns="http://www.w3.org/2000/svg" p-id="2593" xmlns:xlink="http://www.w3.org/1999/xlink" width="200" height="200"><defs><style type="text/css"></style></defs><path d="M722.823529 843.294118H120.470588a30.117647 30.117647 0 0 1-30.117647-30.117647V30.117647A30.117647 30.117647 0 0 1 120.470588 0h602.352941a30.117647 30.117647 0 0 1 30.117647 30.117647v783.058824a30.117647 30.117647 0 0 1-30.117647 30.117647zM150.588235 783.058824h542.117647V60.235294H150.588235z" p-id="2594"></path><path d="M903.529412 1024h-542.117647a30.117647 30.117647 0 0 1 0-60.235294H873.411765V222.870588a30.117647 30.117647 0 1 1 60.235294 0v771.011765a30.117647 30.117647 0 0 1-30.117647 30.117647z" p-id="2595"></path></svg>