<?xml version="1.0" standalone="no"?><!DOCTYPE svg PUBLIC "-//W3C//DTD SVG 1.1//EN" "http://www.w3.org/Graphics/SVG/1.1/DTD/svg11.dtd"><svg t="1544065776934" class="icon" style="" viewBox="0 0 1055 1024" version="1.1" xmlns="http://www.w3.org/2000/svg" p-id="2471" xmlns:xlink="http://www.w3.org/1999/xlink" width="206.0546875" height="200"><defs><style type="text/css"></style></defs><path d="M1023.85604 1024H31.025941A31.025941 31.025941 0 0 1 0 992.974059V212.361394a31.025941 31.025941 0 0 1 31.025941-31.025941h551.641223a31.025941 31.025941 0 0 1 31.025941 31.025941 31.025941 31.025941 0 0 1-31.025941 31.025941H62.051881V961.948119h930.778218V496.55901a31.025941 31.025941 0 0 1 62.051881 0v496.415049a31.025941 31.025941 0 0 1-31.02594 31.025941z" p-id="2472"></path><path d="M527.44099 744.766535a32.266978 32.266978 0 0 1-17.995045-5.58467 31.646459 31.646459 0 0 1-7.446226-43.436316l471.594297-682.570694a30.405422 30.405422 0 0 1 42.815798-7.446225 30.405422 30.405422 0 0 1 8.066744 42.815798l-471.594297 682.570693a31.025941 31.025941 0 0 1-25.441271 13.651414z" p-id="2473"></path></svg>