<?xml version="1.0" standalone="no"?><!DOCTYPE svg PUBLIC "-//W3C//DTD SVG 1.1//EN" "http://www.w3.org/Graphics/SVG/1.1/DTD/svg11.dtd"><svg t="1544596488120" class="icon" style="" viewBox="0 0 1582 1024" version="1.1" xmlns="http://www.w3.org/2000/svg" p-id="644" xmlns:xlink="http://www.w3.org/1999/xlink" width="308.984375" height="200"><defs><style type="text/css"></style></defs><path d="M791.317411 1024C361.237411 1024 23.317411 558.545455 8.422865 538.996364a47.476364 47.476364 0 0 1 0-53.992728C23.317411 465.454545 361.237411 0 791.317411 0s768 465.454545 782.894545 485.003636a47.476364 47.476364 0 0 1 0 53.992728C1559.317411 558.545455 1221.397411 1024 791.317411 1024zM105.237411 512C186.226502 608.814545 465.499229 930.909091 791.317411 930.909091s605.090909-322.094545 686.08-418.909091C1396.40832 415.185455 1117.135593 93.090909 791.317411 93.090909S186.226502 415.185455 105.237411 512z" p-id="645"></path><path d="M791.317411 848.058182A318.370909 318.370909 0 1 1 1117.135593 529.687273a320.232727 320.232727 0 0 1-325.818182 318.370909z m0-542.72A225.28 225.28 0 1 0 1024.044684 529.687273a226.210909 226.210909 0 0 0-232.727273-224.349091z" p-id="646"></path></svg>