<svg xmlns="http://www.w3.org/2000/svg" viewBox="0 0 121 47.55"><defs><style>.cls-1,.cls-2{fill:none;stroke:#fff;}.cls-1{stroke-linecap:round;stroke-linejoin:round;}.cls-2{stroke-miterlimit:10;}.cls-3{fill:#fff;}</style></defs><title>知道了</title><g id="图层_2" data-name="图层 2"><g id="图层_1-2" data-name="图层 1"><path class="cls-1" d="M120.39,23.38a21,21,0,0,1,.11,2.12h0c0,11-9,21.55-20,21.55h-80c-11,0-20-10.5-20-21.55h0a21,21,0,0,1,.22-3"/><rect class="cls-2" x="0.5" y="0.5" width="120" height="40" rx="20" ry="20"/><path class="cls-3" d="M35.16,26.14c0,.71-.12,1.12-.54,1.35a4.46,4.46,0,0,1-2,.27,4.5,4.5,0,0,0-.4-1.38c.58.05,1.15,0,1.33,0s.26-.07.26-.28V22.51H32a15.34,15.34,0,0,1-1.16,5.36,5.56,5.56,0,0,0-1.2-.67c1-2.23,1.12-5.41,1.12-7.75V13.74h4.45Zm-1.37-5v-2.4H32.06v.71c0,.51,0,1.1,0,1.69Zm-1.73-6v2.31h1.73V15.08Zm8.82,6.74a7.84,7.84,0,0,0,3.73,4.68,5.91,5.91,0,0,0-1,1.24,8.6,8.6,0,0,1-3.49-4.4,8.81,8.81,0,0,1-3.78,4.58,5.42,5.42,0,0,0-1.1-1.09,7.06,7.06,0,0,0,3.73-5H35.77V20.41h3.3c0-.24,0-.46,0-.69v-2H36.28V16.31h1.51a11.67,11.67,0,0,0-1.12-2.59l1.25-.43A10.54,10.54,0,0,1,39.17,16l-.9.33h2.34a21.22,21.22,0,0,0,1.18-3.1l1.54.37c-.4.93-.84,1.93-1.25,2.73h1.69v1.41H40.61v2c0,.2,0,.43,0,.65h3.7v1.41Z"/><path class="cls-3" d="M50.33,20.91c0,.3-.08.61-.14.91.8.79,2.64,2.87,3.1,3.39l-1,1.29a35.72,35.72,0,0,0-2.45-3.16,8.59,8.59,0,0,1-3.17,4.48,5.69,5.69,0,0,0-1.06-1.13,7.81,7.81,0,0,0,3.24-5.78h-3V19.5h3.13V16.63H48A11.77,11.77,0,0,1,46.76,19a8.49,8.49,0,0,0-1.21-.87,12.31,12.31,0,0,0,1.9-4.91l1.42.27c-.12.61-.27,1.22-.43,1.79h4.37v1.39H50.43V19.5h2.83v1.41Zm9.25-6.37V27.21h-1.5v-1H55.17v1.2H53.73V14.54ZM58.08,24.8V16H55.17V24.8Z"/><path class="cls-3" d="M65.4,24.89c.32.16.68.44,1.2.71a9.3,9.3,0,0,0,4.17.65,53.85,53.85,0,0,0,5.68-.3A5,5,0,0,0,76,27.39c-1.1.08-3.79.18-5.31.18a9.23,9.23,0,0,1-4.39-.79c-.69-.38-1.22-.83-1.58-.83-.55,0-1.36.88-2.15,1.83l-.89-1.24A7.72,7.72,0,0,1,64,24.88V20.2H61.91V18.83H65.4ZM64.28,17.2A16.61,16.61,0,0,0,62,14.51l1.15-.74a16,16,0,0,1,2.3,2.59Zm5.53.36c.09-.36.2-.78.28-1.17h-4V15.18h2.44a8.82,8.82,0,0,0-.94-1.59l1.25-.51a8.27,8.27,0,0,1,1.1,1.73l-.81.37h2.77a14.35,14.35,0,0,0,1.12-2l1.44.4c-.37.54-.74,1.12-1.09,1.6h2.8v1.21H71.71c-.18.42-.34.82-.51,1.17h3.71v7.56H67.18V17.56Zm3.63,1.09H68.57v1.12h4.87Zm0,2.11H68.57v1.12h4.87Zm0,2.13H68.57V24h4.87Z"/><path class="cls-3" d="M91.41,15.13a24.08,24.08,0,0,1-5.51,4.34v6.58c0,.91-.24,1.36-.93,1.57a11.23,11.23,0,0,1-3.36.25,4.88,4.88,0,0,0-.59-1.5c1.25.05,2.5.05,2.86,0s.47-.1.47-.39V18.72a19.35,19.35,0,0,0,4.08-2.9H78.65V14.35H89.89l.33-.08Z"/><line class="cls-1" x1="5.52" y1="34.05" x2="10.52" y2="44.05"/><line class="cls-1" x1="14.52" y1="39.65" x2="17.52" y2="46.65"/><line class="cls-1" x1="21.52" y1="40.75" x2="24.52" y2="46.75"/><line class="cls-1" x1="27.52" y1="40.75" x2="30.52" y2="46.75"/><line class="cls-1" x1="33.52" y1="40.75" x2="36.52" y2="46.75"/><line class="cls-1" x1="39.52" y1="40.75" x2="42.52" y2="46.75"/><line class="cls-1" x1="45.52" y1="40.75" x2="48.52" y2="46.75"/><line class="cls-1" x1="51.52" y1="40.75" x2="54.52" y2="46.75"/><line class="cls-1" x1="57.52" y1="40.75" x2="60.52" y2="46.75"/><line class="cls-1" x1="63.52" y1="40.75" x2="66.52" y2="46.75"/><line class="cls-1" x1="69.52" y1="40.75" x2="72.52" y2="46.75"/><line class="cls-1" x1="75.52" y1="40.75" x2="78.52" y2="46.75"/><line class="cls-1" x1="81.52" y1="40.75" x2="84.52" y2="46.75"/><line class="cls-1" x1="87.52" y1="40.75" x2="90.52" y2="46.75"/><line class="cls-1" x1="93.52" y1="40.75" x2="96.52" y2="46.75"/><line class="cls-1" x1="99.52" y1="40.75" x2="102.52" y2="46.75"/><line class="cls-1" x1="104.52" y1="40.05" x2="107.52" y2="45.05"/><line class="cls-1" x1="109.52" y1="39.05" x2="111.52" y2="42.05"/><line class="cls-1" x1="113.52" y1="36.05" x2="115.52" y2="39.05"/><line class="cls-1" x1="117.52" y1="32.05" x2="118.52" y2="34.05"/></g></g></svg>