<svg xmlns="http://www.w3.org/2000/svg" viewBox="0 0 16 16"><defs><style>.cls-1{fill:#8e68a5;}.cls-2{fill:#fff;}</style></defs><title>资源 90</title><g id="图层_2" data-name="图层 2"><g id="图层_1-2" data-name="图层 1"><circle class="cls-1" cx="8" cy="8" r="8"/><path class="cls-2" d="M9.79,4.19a2.21,2.21,0,0,0-1.15.31A2,2,0,0,0,7.59,6.24V9.76a1.2,1.2,0,0,1-.63,1,1.49,1.49,0,0,1-.75.19A1.3,1.3,0,0,1,4.84,9.76,1,1,0,0,1,5,9.19a1.4,1.4,0,0,1,.81-.59.2.2,0,0,1,.09,0,.42.42,0,0,0,0-.84,1.34,1.34,0,0,0-.35.06,2.14,2.14,0,0,0-1.26,1,1.94,1.94,0,0,0-.29,1,2.13,2.13,0,0,0,2.21,2.05,2.36,2.36,0,0,0,1.16-.3,2,2,0,0,0,1-1.74V6.24a1.2,1.2,0,0,1,.63-1A1.48,1.48,0,0,1,9.79,5a1.3,1.3,0,0,1,1.37,1.21,1,1,0,0,1-.16.57,1.32,1.32,0,0,1-.81.59.2.2,0,0,1-.09,0,.42.42,0,0,0,0,.84,1.28,1.28,0,0,0,.35-.06,2.14,2.14,0,0,0,1.26-.95,1.94,1.94,0,0,0,.29-1A2.13,2.13,0,0,0,9.79,4.19Z"/></g></g></svg>