<?xml version="1.0" standalone="no"?><!DOCTYPE svg PUBLIC "-//W3C//DTD SVG 1.1//EN" "http://www.w3.org/Graphics/SVG/1.1/DTD/svg11.dtd"><svg t="1544065762508" class="icon" style="" viewBox="0 0 1024 1024" version="1.1" xmlns="http://www.w3.org/2000/svg" p-id="2227" xmlns:xlink="http://www.w3.org/1999/xlink" width="200" height="200"><defs><style type="text/css"></style></defs><path d="M512 1024A512 512 0 1 1 1024 512 512.602353 512.602353 0 0 1 512 1024z m0-963.764706A451.764706 451.764706 0 1 0 963.764706 512 451.764706 451.764706 0 0 0 512 60.235294z" p-id="2228"></path><path d="M465.016471 752.941176a25.901176 25.901176 0 0 1-11.444706 0 30.117647 30.117647 0 0 1-18.672941-30.117647V301.176471a30.117647 30.117647 0 0 1 18.672941-27.708236 28.310588 28.310588 0 0 1 32.527059 6.625883l210.823529 210.823529a28.912941 28.912941 0 0 1 0 42.164706l-210.823529 210.823529a28.310588 28.310588 0 0 1-21.082353 9.035294z m30.117647-378.88v275.877648l137.938823-137.938824z" p-id="2229"></path></svg>