<svg xmlns="http://www.w3.org/2000/svg" viewBox="0 0 96.312 77.438">
  <defs>
    <style>
      .cls-1 {
        fill: none;
        stroke: pink;
        stroke-dasharray: 4 2;
      }

      .cls-2 {
        fill: pink;
      }
    </style>
  </defs>
  <g id="icon-test" transform="translate(-687.946 -826.732) rotate(-17)">
    <path id="形状_2" data-name="形状 2" class="cls-1" d="M407,1069s12.846-46.055,46-24-22.154,33.945-18,14,24.846-37.055,58-35"/>
    <path id="箭头" class="cls-2" d="M486.717,1035.079a.487.487,0,0,1,.076-.375l7.367-10.852-11.109-6.973a.485.485,0,0,1-.145-.689.529.529,0,0,1,.714-.15l11.538,7.242a.485.485,0,0,1,.145.689l-7.651,11.271a.529.529,0,0,1-.714.15A.486.486,0,0,1,486.717,1035.079Z"/>
  </g>
</svg>
